<svg width="18" height="19" viewBox="0 0 18 19" fill="none" xmlns="http://www.w3.org/2000/svg">
<path d="M6.1875 11.0625C5.2 11.0625 4.37313 11.725 4.10188 12.625H2.75V13.875H4.10188C4.37313 14.775 5.2 15.4375 6.1875 15.4375C7.175 15.4375 8.00187 14.775 8.27312 13.875H15.25V12.625H8.27312C8.00187 11.725 7.175 11.0625 6.1875 11.0625ZM6.1875 14.1875C5.67062 14.1875 5.25 13.7669 5.25 13.25C5.25 12.7331 5.67062 12.3125 6.1875 12.3125C6.70438 12.3125 7.125 12.7331 7.125 13.25C7.125 13.7669 6.70438 14.1875 6.1875 14.1875ZM11.8125 7.3125C10.825 7.3125 9.99813 7.975 9.72688 8.875H2.75V10.125H9.72688C9.99813 11.025 10.825 11.6875 11.8125 11.6875C12.8 11.6875 13.6269 11.025 13.8981 10.125H15.25V8.875H13.8981C13.6269 7.975 12.8 7.3125 11.8125 7.3125ZM11.8125 10.4375C11.2956 10.4375 10.875 10.0169 10.875 9.5C10.875 8.98312 11.2956 8.5625 11.8125 8.5625C12.3294 8.5625 12.75 8.98312 12.75 9.5C12.75 10.0169 12.3294 10.4375 11.8125 10.4375Z" fill="#FAFAFA"/>
<path d="M9.52312 5.125C9.25187 4.225 8.425 3.5625 7.4375 3.5625C6.45 3.5625 5.62313 4.225 5.35188 5.125H2.75V6.375H5.35188C5.62313 7.275 6.45 7.9375 7.4375 7.9375C8.425 7.9375 9.25187 7.275 9.52312 6.375H15.3281V5.125H9.52312ZM7.4375 6.6875C6.92062 6.6875 6.5 6.26688 6.5 5.75C6.5 5.23312 6.92062 4.8125 7.4375 4.8125C7.95438 4.8125 8.375 5.23312 8.375 5.75C8.375 6.26688 7.95438 6.6875 7.4375 6.6875Z" fill="#FAFAFA"/>
</svg>
