<svg width="24" height="24" viewBox="0 0 24 24" fill="none" xmlns="http://www.w3.org/2000/svg">
<g filter="url(#filter0_d_45_3601)">
<path fill-rule="evenodd" clip-rule="evenodd" d="M11.9971 2C11.359 1.99975 10.7298 2.14955 10.1602 2.43732C9.5907 2.72508 9.09681 3.14275 8.71846 3.65659C8.25673 3.44495 7.75345 3.33947 7.2456 3.34789C6.73775 3.35631 6.23825 3.47842 5.78379 3.70525C5.32934 3.93209 4.93149 4.25787 4.61949 4.65866C4.30748 5.05946 4.08926 5.52507 3.98084 6.02128C3.87243 6.5175 3.87659 7.0317 3.99301 7.52609C4.10943 8.02049 4.33516 8.48251 4.65361 8.8782C4.97205 9.2739 5.37512 9.59321 5.83318 9.81266C6.29124 10.0321 6.79266 10.1461 7.30058 10.1463H8.72133V8.43223C8.72133 8.19387 8.81602 7.96526 8.98457 7.79671C9.15312 7.62816 9.38172 7.53347 9.62009 7.53347C9.85846 7.53347 10.0871 7.62816 10.2556 7.79671C10.4242 7.96526 10.5188 8.19387 10.5188 8.43223V12.5205H13.4754V8.43223C13.4754 8.19387 13.5701 7.96526 13.7386 7.79671C13.9072 7.62816 14.1358 7.53347 14.3742 7.53347C14.6125 7.53347 14.8411 7.62816 15.0097 7.79671C15.1782 7.96526 15.2729 8.19387 15.2729 8.43223V10.1449H16.6937C17.2016 10.1447 17.703 10.0307 18.1611 9.81122C18.6191 9.59177 19.0222 9.27246 19.3406 8.87677C19.6591 8.48107 19.8848 8.01905 20.0012 7.52465C20.1177 7.03026 20.1218 6.51606 20.0134 6.01984C19.905 5.52363 19.6868 5.05802 19.3748 4.65722C19.0628 4.25643 18.6649 3.93065 18.2105 3.70382C17.756 3.47698 17.2565 3.35487 16.7486 3.34645C16.2408 3.33803 15.7375 3.44351 15.2758 3.65515C14.8974 3.14141 14.4035 2.7239 13.834 2.43637C13.2644 2.14883 12.6352 1.99935 11.9971 2ZM7.96062 14.8558C7.96062 14.6651 8.03638 14.4823 8.17122 14.3474C8.30606 14.2126 8.48894 14.1368 8.67963 14.1368H15.3204C15.5111 14.1368 15.6939 14.2126 15.8288 14.3474C15.9636 14.4823 16.0394 14.6651 16.0394 14.8558C16.0394 16.1745 16.9194 17.4241 18.1576 18.4911C19.185 19.3598 20.3317 20.0765 21.5628 20.6194C21.7151 20.6843 21.8404 20.7998 21.9175 20.9464C21.9945 21.093 22.0186 21.2617 21.9856 21.424C21.9526 21.5863 21.8647 21.7322 21.7365 21.8372C21.6084 21.9421 21.448 21.9996 21.2824 21.9999H2.71763C2.55202 21.9996 2.3916 21.9421 2.26347 21.8372C2.13534 21.7322 2.04736 21.5863 2.01439 21.424C1.98142 21.2617 2.00549 21.093 2.08253 20.9464C2.15957 20.7998 2.28486 20.6843 2.43722 20.6194C3.66825 20.0765 4.815 19.3598 5.84243 18.4911C7.07912 17.4241 7.96062 16.1745 7.96062 14.8558Z" fill="#FF7D33"/>
</g>
<defs>
<filter id="filter0_d_45_3601" x="0" y="0" width="24" height="23.9999" filterUnits="userSpaceOnUse" color-interpolation-filters="sRGB">
<feFlood flood-opacity="0" result="BackgroundImageFix"/>
<feColorMatrix in="SourceAlpha" type="matrix" values="0 0 0 0 0 0 0 0 0 0 0 0 0 0 0 0 0 0 127 0" result="hardAlpha"/>
<feOffset/>
<feGaussianBlur stdDeviation="1"/>
<feComposite in2="hardAlpha" operator="out"/>
<feColorMatrix type="matrix" values="0 0 0 0 0.395833 0 0 0 0 0.206648 0 0 0 0 0.0989583 0 0 0 0.5 0"/>
<feBlend mode="normal" in2="BackgroundImageFix" result="effect1_dropShadow_45_3601"/>
<feBlend mode="normal" in="SourceGraphic" in2="effect1_dropShadow_45_3601" result="shape"/>
</filter>
</defs>
</svg>
