<svg width="23" height="24" viewBox="0 0 23 24" fill="none" xmlns="http://www.w3.org/2000/svg">
<path d="M12.197 1.27243C10.5613 1.16572 8.92331 1.44073 7.41222 2.07575C5.90113 2.71076 4.55837 3.68839 3.48996 4.93143C2.41562 6.17576 1.64319 7.6514 1.23287 9.24331C0.822557 10.8352 0.785453 12.5004 1.12445 14.109C1.46345 15.7176 2.16939 17.2262 3.18724 18.5171C4.20508 19.8081 5.50733 20.8465 6.99246 21.5514C8.47317 22.2522 10.0967 22.5986 11.7344 22.5634C13.3722 22.5281 14.9793 22.1122 16.4285 21.3484C16.4747 21.3247 16.5265 21.3136 16.5785 21.3164C16.6304 21.3193 16.6807 21.336 16.724 21.3649C18.1002 22.2866 19.7237 22.7692 21.38 22.7489C21.419 22.7489 21.4576 22.7412 21.4937 22.7263C21.5297 22.7113 21.5624 22.6894 21.59 22.6617C21.6175 22.6341 21.6393 22.6013 21.6542 22.5652C21.669 22.5291 21.6766 22.4905 21.6765 22.4514V18.8344C21.6774 18.7635 21.6531 18.6946 21.608 18.6399C21.5631 18.5853 21.5001 18.5487 21.4305 18.5369C21.0896 18.4829 20.7568 18.387 20.4395 18.2514C20.4002 18.234 20.3652 18.2081 20.337 18.1758C20.3087 18.1434 20.2879 18.1052 20.276 18.0639C20.2641 18.0225 20.261 17.9791 20.267 17.9364C20.2732 17.8937 20.2885 17.8527 20.312 17.8164C21.876 15.4659 22.4459 12.5917 21.8971 9.82223C21.3484 7.05272 19.7256 4.61305 17.3835 3.03643C15.8371 1.99822 14.0436 1.3874 12.185 1.26593L12.197 1.27243ZM5.08846 11.9089C5.0854 10.6342 5.45985 9.38716 6.16459 8.32498C6.86932 7.2628 7.8728 6.43307 9.04846 5.94043C10.2219 5.4514 11.5145 5.32301 12.7612 5.57165C14.0079 5.82028 15.1524 6.43467 16.0485 7.33643C16.7209 8.01256 17.2356 8.82891 17.5558 9.72712C17.876 10.6253 17.9937 11.5832 17.9006 12.5322C17.8075 13.4812 17.5058 14.3979 17.0172 15.2168C16.5285 16.0356 15.865 16.7364 15.074 17.2689C13.8397 18.0971 12.3558 18.4699 10.8767 18.3236C9.3976 18.1773 8.01551 17.5209 6.96746 16.4669C5.76233 15.2556 5.08524 13.6167 5.08396 11.9079L5.08846 11.9089Z" stroke="white" stroke-width="1.5" stroke-linecap="round" stroke-linejoin="round"/>
</svg>
