<svg width="19" height="20" viewBox="0 0 19 20" fill="none" xmlns="http://www.w3.org/2000/svg">
<path d="M9.5 12C10.6046 12 11.5 11.1046 11.5 10C11.5 8.89543 10.6046 8 9.5 8C8.39543 8 7.5 8.89543 7.5 10C7.5 11.1046 8.39543 12 9.5 12Z" stroke="#FAFAFA" stroke-width="1.5"/>
<path d="M2.89923 3.88004L3.27423 3.23004C3.127 3.1451 2.95529 3.1127 2.78723 3.13813C2.61917 3.16357 2.46474 3.24534 2.34923 3.37004L2.89923 3.88004ZM0.900233 7.34404L0.183233 7.12204C0.133075 7.28449 0.139601 7.45916 0.20174 7.61741C0.263879 7.77567 0.377944 7.90811 0.525233 7.99304L0.900233 7.34404ZM0.898233 12.655L0.523233 12.005C0.375913 12.0902 0.261912 12.2228 0.199946 12.3813C0.137981 12.5397 0.131735 12.7146 0.182233 12.877L0.898233 12.655ZM2.89823 16.119L2.34823 16.629C2.46374 16.7537 2.61817 16.8355 2.78623 16.8609C2.95429 16.8864 3.126 16.854 3.27323 16.769L2.89823 16.119ZM7.49823 18.774H6.74823C6.74823 19.124 6.99123 19.427 7.33223 19.505L7.49823 18.774ZM11.4992 18.776L11.6662 19.508C11.832 19.4702 11.98 19.3771 12.0859 19.2441C12.1918 19.1111 12.2494 18.9461 12.2492 18.776H11.5002H11.4992ZM16.1002 16.12L15.7252 16.77C15.8725 16.855 16.0442 16.8874 16.2122 16.8619C16.3803 16.8365 16.5347 16.7547 16.6502 16.63L16.1002 16.12ZM18.0982 12.654L18.8152 12.876C18.8654 12.7136 18.8589 12.5389 18.7967 12.3807C18.7346 12.2224 18.6205 12.09 18.4732 12.005L18.0982 12.654ZM18.1002 7.34304L18.4752 7.99304C18.6226 7.90792 18.7366 7.77524 18.7985 7.61678C18.8605 7.45833 18.8667 7.28351 18.8162 7.12104L18.1002 7.34304ZM16.1002 3.87804L16.6502 3.36904C16.5347 3.24434 16.3803 3.16257 16.2122 3.13713C16.0442 3.1117 15.8725 3.1441 15.7252 3.22904L16.1002 3.87904V3.87804ZM11.5002 1.22504H12.2502C12.2502 1.05518 12.1925 0.890364 12.0866 0.757568C11.9807 0.624771 11.8328 0.531859 11.6672 0.494037L11.5002 1.22504ZM7.50023 1.22304L7.33323 0.491037C7.16747 0.528897 7.01949 0.621957 6.91357 0.754958C6.80764 0.887959 6.75004 1.05301 6.75023 1.22304H7.50023ZM1.61723 7.56604C1.9812 6.38295 2.60702 5.29707 3.44823 4.38904L2.34823 3.36904C1.35418 4.44201 0.614543 5.72509 0.184233 7.12304L1.61723 7.56604ZM2.35523 14.125C2.04637 13.591 1.79817 13.0242 1.61523 12.435L0.182233 12.878C0.398238 13.5742 0.691392 14.244 1.05623 14.875L2.35523 14.125ZM3.44923 15.611C3.03034 15.158 2.66339 14.6596 2.35523 14.125L1.05623 14.875C1.42017 15.5063 1.85353 16.094 2.34823 16.629L3.44923 15.611ZM11.3332 18.046C10.1266 18.3207 8.87358 18.32 7.66723 18.044L7.33323 19.506C8.75934 19.8325 10.2407 19.8335 11.6672 19.509L11.3332 18.046ZM17.3832 12.434C17.0192 13.6171 16.3934 14.703 15.5522 15.611L16.6522 16.631C17.6464 15.5578 18.3851 14.2743 18.8152 12.876L17.3832 12.434ZM16.6452 5.87504C16.9602 6.42204 17.2052 6.98804 17.3852 7.56504L18.8172 7.12204C18.6016 6.42592 18.3087 5.75609 17.9442 5.12504L16.6442 5.87504H16.6452ZM15.5502 4.38904C15.9602 4.83204 16.3282 5.32904 16.6442 5.87504L17.9442 5.12504C17.58 4.49367 17.1453 3.90402 16.6502 3.36904L15.5502 4.38904ZM7.66623 1.95404C8.87288 1.67941 10.1259 1.68009 11.3322 1.95604L11.6672 0.494037C10.2411 0.167554 8.75879 0.166529 7.33223 0.491037L7.66623 1.95404ZM8.24923 3.07204V1.22204H6.74923V3.07204H8.24923ZM4.87523 4.15404L3.27423 3.23004L2.52423 4.52904L4.12423 5.45304L4.87523 4.15404ZM2.12523 11.082L0.524233 12.007L1.27423 13.306L2.87523 12.382L2.12523 11.082ZM2.87523 7.61804L1.27523 6.69504L0.525233 7.99504L2.12523 8.91804L2.87523 7.61804ZM8.25023 18.775V16.928H6.75023V18.775H8.25023ZM4.12523 14.547L2.52423 15.471L3.27423 16.771L4.87423 15.846L4.12423 14.546L4.12523 14.547ZM16.4762 15.471L14.8752 14.547L14.1252 15.846L15.7252 16.77L16.4762 15.471ZM12.2502 18.777V16.928H10.7502V18.778L12.2502 18.777ZM17.7262 6.69404L16.1252 7.61804L16.8752 8.91804L18.4752 7.99304L17.7262 6.69404ZM18.4742 12.006L16.8752 11.082L16.1252 12.382L17.7252 13.305L18.4752 12.005L18.4742 12.006ZM12.2502 3.07204V1.22504H10.7502V3.07204H12.2502ZM15.7262 3.23004L14.1252 4.15404L14.8752 5.45404L16.4762 4.52904L15.7262 3.23004ZM10.7502 3.07204C10.7502 5.18904 13.0422 6.51304 14.8752 5.45404L14.1252 4.15404C13.9352 4.26372 13.7197 4.32148 13.5004 4.32151C13.281 4.32153 13.0655 4.26382 12.8755 4.15417C12.6855 4.04452 12.5276 3.8868 12.4179 3.69685C12.3082 3.5069 12.2503 3.29141 12.2502 3.07204H10.7502ZM16.1252 7.61804C14.2922 8.67704 14.2922 11.323 16.1252 12.382L16.8752 11.082C16.6852 10.9723 16.5274 10.8145 16.4177 10.6245C16.308 10.4345 16.2503 10.2189 16.2503 9.99954C16.2503 9.78013 16.308 9.56458 16.4177 9.37457C16.5274 9.18455 16.6852 9.02675 16.8752 8.91704L16.1252 7.61804ZM14.8752 14.547C13.0422 13.488 10.7502 14.811 10.7502 16.928H12.2502C12.2503 16.7087 12.3082 16.4932 12.4179 16.3032C12.5276 16.1133 12.6855 15.9556 12.8755 15.8459C13.0655 15.7363 13.281 15.6785 13.5004 15.6786C13.7197 15.6786 13.9352 15.7363 14.1252 15.846L14.8752 14.546V14.547ZM8.25023 16.928C8.25023 14.811 5.95823 13.488 4.12523 14.547L4.87423 15.846C5.06422 15.7363 5.28072 15.6786 5.5001 15.6786C5.71948 15.6785 5.93499 15.7363 6.125 15.8459C6.31501 15.9556 6.47282 16.1133 6.58257 16.3032C6.69231 16.4932 6.75014 16.7087 6.75023 16.928H8.25023ZM2.87523 12.382C4.70823 11.323 4.70823 8.67704 2.87523 7.61804L2.12523 8.91804C2.31524 9.02775 2.47303 9.18555 2.58273 9.37556C2.69243 9.56558 2.75018 9.78113 2.75018 10.0005C2.75018 10.2199 2.69243 10.4355 2.58273 10.6255C2.47303 10.8155 2.31524 10.9733 2.12523 11.083L2.87523 12.382ZM6.75023 3.07204C6.75014 3.29141 6.69231 3.5069 6.58257 3.69685C6.47282 3.8868 6.31501 4.04452 6.125 4.15417C5.93499 4.26382 5.71948 4.32153 5.5001 4.32151C5.28072 4.32148 5.06522 4.26372 4.87523 4.15404L4.12523 5.45404C5.95823 6.51204 8.25023 5.18904 8.25023 3.07204H6.75023Z" fill="#FAFAFA"/>
</svg>
