<svg width="22" height="22" viewBox="0 0 22 22" fill="none" xmlns="http://www.w3.org/2000/svg">
<path d="M17.1707 12.375L19.3171 14.575V19.8C19.3171 20.405 19.1071 20.9231 18.6871 21.3543C18.2672 21.7855 17.7617 22.0007 17.1707 22H2.14634C1.5561 22 1.05099 21.7848 0.631024 21.3543C0.211057 20.9238 0.000715447 20.4057 0 19.8V4.4C0 3.795 0.210342 3.27727 0.631024 2.8468C1.05171 2.41633 1.55681 2.20073 2.14634 2.2H8.04878C7.90569 2.53 7.79837 2.8831 7.72683 3.2593C7.65528 3.6355 7.60163 4.01573 7.56585 4.4H2.14634V19.8H17.1707V12.375ZM18.5659 7.59L22 11.11L20.4976 12.65L17.0634 9.13C16.6878 9.35 16.2854 9.53333 15.8561 9.68C15.4268 9.82667 14.9707 9.9 14.4878 9.9C13.1463 9.9 12.0063 9.41857 11.0676 8.4557C10.1289 7.49283 9.65925 6.32427 9.65854 4.95C9.65854 3.575 10.1282 2.40643 11.0676 1.4443C12.007 0.482167 13.1471 0.000733333 14.4878 0C15.8293 0 16.9697 0.481433 17.9091 1.4443C18.8485 2.40717 19.3178 3.57573 19.3171 4.95C19.3171 5.445 19.2455 5.9125 19.1024 6.3525C18.9593 6.7925 18.7805 7.205 18.5659 7.59ZM14.4878 7.7C15.239 7.7 15.874 7.43417 16.3927 6.9025C16.9114 6.37083 17.1707 5.72 17.1707 4.95C17.1707 4.18 16.9114 3.52917 16.3927 2.9975C15.874 2.46583 15.239 2.2 14.4878 2.2C13.7366 2.2 13.1016 2.46583 12.5829 2.9975C12.0642 3.52917 11.8049 4.18 11.8049 4.95C11.8049 5.72 12.0642 6.37083 12.5829 6.9025C13.1016 7.43417 13.7366 7.7 14.4878 7.7ZM2.14634 12.375V19.8V4.4V12.1V11.77V12.375Z" fill="white"/>
</svg>
