<svg width="25" height="24" viewBox="0 0 25 24" fill="none" xmlns="http://www.w3.org/2000/svg">
<path d="M22.5 22.0015C22.5 22.0015 16.345 18.9255 16.345 14.3115H8.65504C8.65504 18.9271 2.5 22.003 2.5 22.003M17.8845 9.69449C18.3749 9.69409 18.8581 9.57643 19.2939 9.35132C19.7296 9.12621 20.1051 8.80019 20.3892 8.40043C20.6733 8.00068 20.8577 7.53879 20.9271 7.05329C20.9964 6.56779 20.9486 6.07275 20.7877 5.60947C20.6268 5.14618 20.3575 4.72808 20.0022 4.39003C19.6469 4.05199 19.2159 3.8038 18.7452 3.66617C18.2745 3.52853 17.7777 3.50545 17.2962 3.59884C16.8148 3.69223 16.3626 3.89938 15.9775 4.20302C15.6663 3.54409 15.1743 2.98716 14.5587 2.59712C13.9432 2.20708 13.2295 2 12.5008 2C11.7721 2 11.0583 2.20708 10.4428 2.59712C9.82725 2.98716 9.33522 3.54409 9.02403 4.20302C8.63891 3.89938 8.18677 3.69223 7.70532 3.59884C7.22387 3.50545 6.72706 3.52853 6.25635 3.66617C5.78563 3.8038 5.35465 4.05199 4.99934 4.39003C4.64404 4.72808 4.37471 5.14618 4.21383 5.60947C4.05295 6.07275 4.00518 6.56779 4.0745 7.05329C4.14381 7.53879 4.32821 8.00068 4.61232 8.40043C4.89642 8.80019 5.27199 9.12621 5.7077 9.35132C6.14341 9.57643 6.62663 9.69409 7.11705 9.69449M10.193 8.15651V14.31M14.807 8.15651V14.31" stroke="#FAFAFA" stroke-width="2" stroke-linecap="round" stroke-linejoin="round"/>
</svg>
